<svg width="16" height="16" viewBox="0 0 16 16" fill="none" xmlns="http://www.w3.org/2000/svg">
<path d="M11.18 12.6533H4.82004C4.54004 12.6533 4.2867 12.4733 4.19337 12.2133L1.42004 4.44667C1.20004 3.82667 1.9067 3.3 2.43337 3.68L5.10004 5.58667C5.45337 5.84 5.96004 5.68667 6.11337 5.28L7.37337 1.92C7.58671 1.34 8.40671 1.34 8.62004 1.92L9.88004 5.28C10.0334 5.69333 10.5334 5.84 10.8934 5.58667L13.56 3.68C14.0934 3.3 14.7934 3.83333 14.5734 4.44667L11.8 12.2133C11.7134 12.4733 11.46 12.6533 11.18 12.6533Z" fill="#FFB932"/>
<path d="M11.3333 14.6667H4.66663C4.39329 14.6667 4.16663 14.44 4.16663 14.1667C4.16663 13.8933 4.39329 13.6667 4.66663 13.6667H11.3333C11.6066 13.6667 11.8333 13.8933 11.8333 14.1667C11.8333 14.44 11.6066 14.6667 11.3333 14.6667Z" fill="#FFB932"/>
<path opacity="0.4" d="M9.66671 9.83333H6.33337C6.06004 9.83333 5.83337 9.60666 5.83337 9.33333C5.83337 9.05999 6.06004 8.83333 6.33337 8.83333H9.66671C9.94004 8.83333 10.1667 9.05999 10.1667 9.33333C10.1667 9.60666 9.94004 9.83333 9.66671 9.83333Z" fill="#060606"/>
</svg>
